
<!DOCTYPE svg PUBLIC "-//W3C//DTD SVG 1.1//EN" "http://www.w3.org/Graphics/SVG/1.1/DTD/svg11.dtd">
<svg version="1.1"
	 xmlns="http://www.w3.org/2000/svg" xmlns:xlink="http://www.w3.org/1999/xlink" xmlns:a="http://ns.adobe.com/AdobeSVGViewerExtensions/3.0/"
	 x="0px" y="0px" width="32px" height="32px" viewBox="0 0 32 32" style="enable-background:new 0 0 32 32;" xml:space="preserve">
<defs>
</defs>
<path d="M13.4,23.8c5.8,0,10.4-4.7,10.4-10.4S19.2,3,13.4,3S3,7.6,3,13.4S7.6,23.8,13.4,23.8L13.4,23.8z M24.2,21.4l7.2,7.2
	c0.8,0.8,0.8,2.1,0,2.8c-0.8,0.8-2.1,0.8-2.8,0l0,0l-7.2-7.2c-2.3,1.7-5.1,2.6-7.9,2.6C6,26.8,0,20.8,0,13.4S6,0,13.4,0
	s13.4,6,13.4,13.4C26.8,16.3,25.9,19.1,24.2,21.4z"/>
</svg>
